<svg width="76" height="103" viewBox="0 0 76 103" fill="none" xmlns="http://www.w3.org/2000/svg">
<g id="New York Times Monogram">
<path id="New York Times Logo" d="M75.6032 13.7209C75.6032 2.74418 65.194 0 56.9763 0V1.64651C61.907 1.64651 65.7419 3.29302 65.7419 7.13488C65.7419 9.33022 64.0984 12.6232 59.1677 12.6232C55.3328 12.6232 47.115 10.4279 41.0887 8.23255C33.9666 5.48837 27.3925 3.29302 21.914 3.29302C10.957 3.29302 3.2871 11.5256 3.2871 20.8558C3.2871 29.0883 9.31343 31.8325 11.5048 32.9302L12.0527 31.8325C10.957 30.7348 9.31344 29.6372 9.31344 26.3442C9.31344 24.1488 11.5048 20.307 16.9833 20.307C21.914 20.307 28.4882 22.5023 37.2537 25.2465C44.9236 27.4418 53.1414 29.0883 57.5242 29.6372V46.6511L49.3064 53.786V54.3348L57.5242 61.4697V85.0697C53.1414 87.8139 48.2107 88.3627 43.8279 88.3627C35.6102 88.3627 28.4882 86.1673 22.4618 79.5813L44.9236 68.6046V30.7348L17.5312 42.8092C19.7226 35.6744 25.7489 30.7348 31.7753 27.4418L31.2274 25.7953C14.7919 30.186 0 45.5534 0 64.2139C0 86.1673 18.079 102.632 38.3494 102.632C60.2634 102.632 74.5075 85.0697 74.5075 66.9581H73.4118C70.1247 74.0929 65.1941 80.679 59.1677 83.972V61.4697L67.9333 54.3348V53.786L59.1677 46.6511V29.6372C67.3855 29.6372 75.6032 24.1488 75.6032 13.7209ZM27.9403 74.0929L21.3661 77.386C17.5312 72.4464 15.3398 65.8604 15.3398 56.5302C15.3398 52.6883 15.3398 48.2976 16.4355 45.0046L27.9403 40.0651V74.0929Z" fill="black"/>
</g>
</svg>
