<?xml version="1.0" encoding="utf-8"?>
<svg width="312" height="275" viewBox="0 0 312 275" fill="none" xmlns="http://www.w3.org/2000/svg">
  <defs/>
  <path d="M130.813 78.1745C130.825 78.1745 130.837 78.1745 130.849 78.1731L159.123 76.9025C159.481 76.8866 159.787 76.6366 159.875 76.2897L166.13 51.1354C166.266 50.5885 165.822 50.088 165.272 50.1307L137.772 52.5704C137.439 52.6009 137.159 52.8305 137.066 53.1499L130.035 77.135C129.881 77.6537 130.272 78.1745 130.813 78.1745ZM138.466 54.1373L164.281 51.8468L158.445 75.3103L131.911 76.5019L138.466 54.1373Z" fill="black"/>
  <path d="M149.474 124.421L121.922 126.878C121.594 126.906 121.317 127.131 121.219 127.443L113.676 151.602C113.516 152.125 113.9 152.656 114.451 152.656C114.464 152.656 114.475 152.656 114.487 152.654L142.789 151.374C143.142 151.358 143.444 151.116 143.536 150.775L150.33 125.439C150.476 124.888 150.025 124.369 149.474 124.421ZM142.121 149.781L115.569 150.984L122.606 128.447L148.461 126.14L142.121 149.781Z" fill="black"/>
  <path d="M149.244 30.1652C152.057 30.1652 155.068 27.1373 155.969 23.4024C156.87 19.6668 155.32 16.6388 152.506 16.6388C149.693 16.6388 146.682 19.6668 145.781 23.4024C144.88 27.1373 146.431 30.1652 149.244 30.1652Z" fill="black"/>
  <path d="M165.655 29.012C168.468 29.012 171.48 25.9841 172.38 22.2485C173.282 18.5135 171.731 15.4856 168.918 15.4856C166.104 15.4856 163.093 18.5135 162.193 22.2485C161.291 25.9841 162.842 29.012 165.655 29.012Z" fill="black"/>
  <path d="M182.962 28.5318C185.775 28.5318 188.786 25.5038 189.687 21.7682C190.589 18.0333 189.038 15.0053 186.225 15.0053C183.413 15.0053 180.401 18.0333 179.5 21.7682C178.599 25.5038 180.149 28.5318 182.962 28.5318Z" fill="black"/>
  <path d="M155.229 58.6031L143.158 67.8216L140 63.7723C139.722 63.421 139.215 63.3558 138.861 63.6311C138.507 63.907 138.444 64.417 138.72 64.7698C142.423 69.3356 142.299 69.7651 143.013 69.7651C143.524 69.7651 142.751 70.094 156.215 59.8925C156.572 59.6201 156.64 59.1116 156.367 58.7552C156.095 58.3974 155.585 58.3322 155.229 58.6031Z" fill="black"/>
  <path d="M122.361 140.173L126.264 145.114C126.546 145.471 127.072 145.53 127.426 145.23L140.473 134.161C140.815 133.872 140.856 133.36 140.567 133.019C140.278 132.677 139.765 132.636 139.424 132.926L127.017 143.449L123.636 139.169C123.358 138.814 122.848 138.757 122.497 139.034C122.145 139.312 122.084 139.822 122.361 140.173Z" fill="black"/>
  <path d="M172.114 60.3699C172.13 60.8074 172.489 61.1522 172.925 61.1522H172.953L258.601 58.1388C259.049 58.1228 259.399 57.7476 259.383 57.2992C259.367 56.8523 258.932 56.4756 258.544 56.5169L172.896 59.5303C172.448 59.5462 172.098 59.9215 172.114 60.3699Z" fill="black"/>
  <path d="M199.5 70.4801C199.948 70.4801 200.311 70.1172 200.311 69.6688C200.311 69.2204 199.948 68.8575 199.5 68.8575H174.708C174.26 68.8575 173.897 69.2204 173.897 69.6688C173.897 70.1172 174.26 70.4801 174.708 70.4801H199.5Z" fill="black"/>
  <path d="M248.049 96.0682H166.646C166.197 96.0682 165.834 96.4312 165.834 96.8796C165.834 97.3279 166.197 97.6909 166.646 97.6909H248.049C248.497 97.6909 248.86 97.3279 248.86 96.8796C248.86 96.4312 248.497 96.0682 248.049 96.0682Z" fill="black"/>
  <path d="M220.037 109.946C220.485 109.946 220.848 109.583 220.848 109.135C220.848 108.686 220.485 108.323 220.037 108.323H167.287C166.839 108.323 166.476 108.686 166.476 109.135C166.476 109.583 166.839 109.946 167.287 109.946H220.037Z" fill="black"/>
  <path d="M242.744 132.731H157.258C156.809 132.731 156.446 133.094 156.446 133.543C156.446 133.991 156.809 134.354 157.258 134.354H242.744C243.192 134.354 243.555 133.991 243.555 133.543C243.555 133.094 243.192 132.731 242.744 132.731Z" fill="black"/>
  <path d="M197.07 143.801H160.84C160.391 143.801 160.028 144.164 160.028 144.612C160.028 145.061 160.391 145.423 160.84 145.423H197.07C197.519 145.423 197.882 145.061 197.882 144.612C197.882 144.164 197.519 143.801 197.07 143.801Z" fill="black"/>
  <path d="M0 172.034C0 184.985 14.2125 193.436 25.7015 186.699L27.8294 185.443C28.0751 185.656 28.1946 185.823 28.5576 185.823C28.9858 185.823 26.2978 187.254 70.7488 160.777L52.9578 224.053C52.2594 226.556 54.0845 229.021 56.6261 229.105L149.775 233.186L138.177 269.943L82.5588 270.337C81.5364 270.344 80.6395 271.015 80.3446 271.994C79.8896 273.494 81.0162 275.007 82.5812 275L161.84 274.807C171.751 274.764 180.47 268.261 183.335 258.778L191.524 235.014L266.913 238.317C268.23 238.354 276.832 236.239 277.948 230.901L311.307 72.1815C312.096 68.2582 310.944 64.1945 308.212 61.2701L307.117 59.5048C306.636 57.6678 304.884 56.3436 302.892 56.5341L285.563 58.1176L298.822 4.71457C299.444 2.1872 297.408 -0.194579 294.865 0.012595L132.113 10.8834C130.445 11.0102 129.023 12.2301 128.656 13.8519L115.224 73.6542L97.4023 75.2891C95.775 75.4507 94.3868 76.6133 93.9448 78.1787L83.7144 114.555L75.5909 119.11C75.3214 117.6 74.812 116.711 73.8085 115.067C71.7284 111.659 68.9527 109.55 65.4691 108.407C64.9953 108.251 62.6818 107.962 61.9558 107.749C55.5633 96.4947 38.6511 65.1166 32.3629 54.0589C32.1412 53.6677 31.6434 53.5279 31.2565 53.7546C30.8667 53.9763 30.7305 54.471 30.9522 54.8608C37.3006 66.0242 54.3265 97.624 60.664 108.76C60.9415 109.245 61.4581 109.368 63.7425 109.731C64.2954 109.82 64.7801 109.89 64.9612 109.947C68.1014 110.98 70.5488 112.84 72.4421 115.943C73.6288 117.887 73.8411 118.408 74.0773 119.826C68.468 123.04 72.0907 120.807 63.5324 125.871L63.5353 125.879C63.5187 125.889 62.3913 126.578 62.258 126.665C61.5189 127.151 61.8095 127.952 62.3753 128.071C62.7072 128.346 63.3969 130.052 63.6571 130.503C64.3164 131.628 64.8844 132.582 65.3401 133.489C70.7604 144.304 71.7864 146.545 71.761 148.984C71.7385 150.787 70.7075 152.926 68.8404 153.339C67.3717 153.666 65.906 152.824 65.0185 151.933C63.4969 150.398 63.8034 150.306 55.0293 132.775C54.7648 132.197 54.4366 131.476 53.7476 131.021C53.5179 130.872 53.2324 130.844 52.9839 130.951C51.7421 131.475 53.0687 134.123 53.2868 134.861C55.3089 141.662 55.385 143.007 56.2892 146.662C57.0848 149.906 58.0767 153.945 56.7406 156.46C55.8516 158.138 53.5621 158.177 52.3217 157.564C50.6328 156.731 49.5322 153.765 48.8924 151.835C48.2722 149.988 48.3374 149.675 47.8013 149.245L44.7452 134.492C44.6546 134.053 44.2127 133.761 43.7866 133.863C43.3476 133.953 43.0657 134.382 43.1577 134.821L46.2711 149.854C45.9146 150.797 45.0951 152.174 44.1322 152.464C42.7824 152.874 40.7776 152.814 39.5546 151.718C38.9967 151.219 38.499 150.571 38.0766 149.79C37.0477 147.911 37.1021 147.236 34.5886 135.214C34.3713 134.153 32.7824 134.5 33.0012 135.543L35.4921 147.606L35.4559 147.817C35.4001 148.159 35.3422 148.512 35.1929 148.666C33.5917 150.302 30.2972 149.801 28.433 146.262C26.4202 142.464 23.6337 125.691 19.7009 113.077C16.5687 103.061 7.60039 82.1758 4.4943 72.2235C4.16898 71.1949 2.62644 71.6868 2.94452 72.7081C6.06799 82.7111 15.0399 103.61 18.1511 113.56C22.0078 125.921 24.6719 142.027 26.7912 146.515L12.1613 154.713C11.6868 154.981 11.7382 155.426 11.7802 155.759L10.3181 156.394C3.86178 159.187 0 165.481 0 172.034ZM167.158 217.425C168.585 213.401 171.441 210.741 173.55 211.487C175.66 212.233 176.212 216.127 174.783 220.149C173.355 224.172 170.467 226.833 168.358 226.087C166.249 225.341 165.73 221.447 167.158 217.425ZM180.204 253.766C177.338 263.249 168.616 269.756 158.705 269.798L139.88 269.931L151.452 233.26L185.944 234.771L180.204 253.766ZM303.042 58.1516C304.685 58.0155 305.879 59.491 305.581 60.9746L290.337 134.274L274.349 207.299L60.6778 202.592L72.7746 159.568L99.5202 143.606L94.7875 164.722C94.4607 164.717 93.0037 164.698 93.3304 164.702C89.047 164.702 85.2823 167.524 84.1136 171.644C82.4262 177.646 86.8074 183.649 93.0377 183.844L251.629 189.002C256.334 189.132 260.456 185.856 261.364 181.248L261.916 178.394C262.697 174.549 261.014 170.892 258.084 168.797L276.529 94.5041L298.247 58.5892L303.042 58.1516ZM130.239 14.2091C130.45 13.2775 131.271 12.5756 132.229 12.5031L294.984 1.63159C296.407 1.50048 297.607 2.86087 297.247 4.32775L252.986 182.601C252.723 183.607 251.78 184.289 250.802 184.266L95.5185 180.827C94.1528 180.804 93.1305 179.503 93.4413 178.148L101.441 142.46L115.682 133.961C115.72 133.937 115.738 133.895 115.772 133.866C115.829 133.819 115.894 133.782 115.938 133.718L129.772 113.329L151.362 112.372C151.708 112.357 152.006 112.122 152.104 111.791L159.428 86.9249C159.576 86.4236 159.223 85.8687 158.579 85.8876L130.976 88.2991C130.656 88.3273 130.382 88.5417 130.279 88.846L124.474 105.944L109.748 105.441L130.239 14.2091ZM101.531 106.785L119.804 107.408C119.734 109.627 120.382 111.868 121.469 113.853C122.315 115.379 123.389 116.822 124.606 118.051L115.014 132.191C112.257 130.556 100.961 122.82 101.531 106.785ZM133.723 107.505C134.08 106.973 133.715 106.261 133.08 106.237L131.707 106.19L138.955 100.269C145.003 106.007 144.736 106.132 145.338 106.132C146.061 106.132 146.427 105.247 145.902 104.737L140.22 99.2351L148.054 92.8366C148.401 92.5548 148.452 92.0427 148.168 91.6957C147.882 91.3487 147.372 91.298 147.027 91.582L139.047 98.0992L134.178 93.3835C133.859 93.0727 133.346 93.0822 133.031 93.4023C132.72 93.724 132.728 94.2375 133.05 94.549L137.782 99.1322L130.298 105.244C130.025 105.468 129.995 105.82 130.109 106.134L126.168 105.999L131.644 89.8673L157.535 87.6051L150.711 110.776L130.908 111.652L133.723 107.503L133.723 107.505ZM95.5077 78.6198C95.7692 77.6897 96.5959 77.0008 97.5581 76.9038L114.85 75.3181L108.096 105.384L100.755 105.134C100.755 105.134 100.753 105.136 100.75 105.136C100.606 105.132 100.461 105.165 100.332 105.237L85.7163 113.432L95.507 78.6191L95.5077 78.6198ZM27.5744 147.938C30.2045 151.819 34.2517 151.876 36.2964 149.858C36.8282 151.012 37.5332 152.088 38.4736 152.928C40.1705 154.451 42.7803 154.572 44.6039 154.018C45.719 153.68 46.5602 152.733 47.1521 151.733C47.9976 154.349 49.2431 157.857 51.6044 159.019C53.807 160.106 56.9305 159.57 58.1738 157.221C60.1459 153.507 58.1484 147.88 57.3579 144.114C56.9696 142.265 56.5023 140.332 55.932 138.222C61.8761 150.064 62.0776 151.273 63.8693 153.077C65.3887 154.606 67.4232 155.32 69.1932 154.924C71.903 154.324 73.3528 151.491 73.3847 149.002C73.4115 146.515 72.3037 144.144 71.4132 142.24C70.1518 139.53 67.279 133.475 65.0627 129.69C64.8728 129.36 64.4301 128.239 63.9643 127.497C64.0215 127.461 64.0903 127.419 64.3207 127.29C64.3222 127.29 64.3236 127.288 64.3258 127.288L99.8621 107.362C99.5803 122.952 110.029 130.957 113.675 133.27C83.2195 151.446 61.0161 164.697 28.6467 184.016C16.4789 173.322 13.8473 158.774 13.4322 155.864L27.5744 147.938Z" fill="black"/>
</svg>